<svg xmlns="http://www.w3.org/2000/svg" width="96" height="96" viewBox="0 0 96 96" fill="none">
  <defs>
    <linearGradient id="g1" x1="18" y1="14" x2="78" y2="72" gradientUnits="userSpaceOnUse">
      <stop stop-color="#87D7CD"/>
      <stop offset="1" stop-color="#4FAAA0"/>
    </linearGradient>
    <linearGradient id="g2" x1="20" y1="44" x2="78" y2="82" gradientUnits="userSpaceOnUse">
      <stop stop-color="#D29B66"/>
      <stop offset="1" stop-color="#B77643"/>
    </linearGradient>
  </defs>
  <rect width="96" height="96" rx="20" fill="#F8EADB"/>
  <g transform="translate(6 2)">
    <rect x="16" y="42" width="52" height="22" rx="6" transform="rotate(9 16 42)" fill="url(#g2)"/>
    <rect x="18" y="45" width="48" height="16" rx="4" transform="rotate(9 18 45)" fill="#F7EFE3"/>
    <rect x="21" y="21" width="56" height="32" rx="8" transform="rotate(11 21 21)" fill="url(#g1)"/>
    <rect x="24" y="24" width="50" height="24" rx="6" transform="rotate(11 24 24)" fill="#8FE4D8" fill-opacity="0.6"/>
    <path d="M43.8 34.1a2.7 2.7 0 0 0-3.8 3.8l5.3 5.3a2.7 2.7 0 0 0 3 .6l12.8-5.5a2.7 2.7 0 1 0-2.2-4.9l-11.1 4.8-4-4.1Z" fill="#2D6D67"/>
    <path d="M16 53c4 1.5 5.4 6.2 2.9 9.7l-2.2 3" stroke="#B77643" stroke-width="3.2" stroke-linecap="round"/>
    <path d="M22.5 58.2 19 63.6" stroke="#4FAAA0" stroke-width="3.2" stroke-linecap="round"/>
  </g>
</svg>
